<?xml version="1.0" encoding="UTF-8"?>
<svg xmlns="http://www.w3.org/2000/svg" viewBox="0 0 500 500" width="100%" height="100%">
  <defs>
    <filter id="crestShadow" x="-10%" y="-10%" width="120%" height="120%">
      <feDropShadow dx="0" dy="4" stdDeviation="6" flood-color="#001026" flood-opacity="0.22"/>
    </filter>
    <clipPath id="globeClip">
      <circle cx="250" cy="200" r="95"/>
    </clipPath>
    <!-- Curved Path for Lower Text CONSULTANTS: Radius 202 centered at (250,250) -->
    <path id="consultantsArc" d="M 134 416 A 202 202 0 0 0 366 416" fill="none"/>
  </defs>

  <g filter="url(#crestShadow)">
    <!-- 1. Outer Split Ring Border (Outer radius 240, Inner radius 218, Thickness 22) -->
    <!-- Left Half: Oxford Navy (#002046) -->
    <path d="M 250 10 A 240 240 0 0 0 250 490 L 250 468 A 218 218 0 0 1 250 32 Z" fill="#002046"/>
    <!-- Right Half: Vibrant Crimson Red (#C6181B) -->
    <path d="M 250 10 A 240 240 0 0 1 250 490 L 250 468 A 218 218 0 0 0 250 32 Z" fill="#c6181b"/>

    <!-- Inner White Ring & Circle Base (Radius 215) -->
    <circle cx="250" cy="250" r="215" fill="#ffffff"/>
    <circle cx="250" cy="250" r="214" fill="none" stroke="#e2e8f0" stroke-width="1.5"/>

    <!-- 2. Globe Base (Oxford Navy #002046, Radius 95 centered at x=250, y=200) -->
    <circle cx="250" cy="200" r="95" fill="#002046"/>

    <!-- Globe Grid & Smooth Continent Landmasses (Clipped strictly inside Globe) -->
    <g clip-path="url(#globeClip)">
      <!-- Smooth Elliptical Latitude Arcs -->
      <path d="M 155 200 Q 250 182 345 200" fill="none" stroke="#ffffff" stroke-width="1.5" opacity="0.85"/>
      <path d="M 164 165 Q 250 150 336 165" fill="none" stroke="#ffffff" stroke-width="1.3" opacity="0.85"/>
      <path d="M 164 235 Q 250 220 336 235" fill="none" stroke="#ffffff" stroke-width="1.3" opacity="0.85"/>
      <!-- Longitude / Meridian Curves meeting at exact poles (250, 105 and 250, 295) -->
      <line x1="250" y1="105" x2="250" y2="295" stroke="#ffffff" stroke-width="1.5" opacity="0.85"/>
      <path d="M 250 105 Q 205 200 250 295" fill="none" stroke="#ffffff" stroke-width="1.3" opacity="0.85"/>
      <path d="M 250 105 Q 295 200 250 295" fill="none" stroke="#ffffff" stroke-width="1.3" opacity="0.85"/>
      <path d="M 250 105 Q 165 200 250 295" fill="none" stroke="#ffffff" stroke-width="1.3" opacity="0.85"/>
      <path d="M 250 105 Q 335 200 250 295" fill="none" stroke="#ffffff" stroke-width="1.3" opacity="0.85"/>

      <!-- High-Precision Cartographic Continent Silhouettes (White #ffffff) -->
      <!-- Europe & Africa Landmass (East) -->
      <path d="M 246 148 C 262 144, 280 150, 290 162 C 300 174, 295 186, 284 194 C 276 200, 278 212, 286 226 C 294 240, 292 262, 276 274 C 262 284, 248 270, 251 254 C 254 238, 246 222, 251 208 C 255 194, 240 186, 244 172 C 248 158, 240 152, 246 148 Z" fill="#ffffff" opacity="0.96"/>
      <ellipse cx="236" cy="158" rx="5" ry="7.5" fill="#ffffff" opacity="0.96" transform="rotate(-18 236 158)"/>
      <circle cx="228" cy="163" r="3.2" fill="#ffffff" opacity="0.96"/>
      <!-- Americas Landmass (West) -->
      <path d="M 186 150 C 204 146, 216 160, 211 176 C 206 190, 194 198, 202 212 C 210 224, 220 242, 208 264 C 196 282, 178 274, 182 248 C 186 226, 175 212, 180 194 C 185 178, 172 162, 186 150 Z" fill="#ffffff" opacity="0.96"/>
      <path d="M 204 126 C 218 124, 224 136, 216 144 C 208 152, 196 140, 204 126 Z" fill="#ffffff" opacity="0.96"/>
    </g>

    <!-- 3. Prominent Graduation Cap (Mortarboard sitting gracefully atop Globe) -->
    <path d="M 250 114 C 282 122, 314 130, 344 138 C 314 146, 282 154, 250 162 C 218 154, 186 146, 156 138 C 186 130, 218 122, 250 114 Z" fill="#002046" stroke="#ffffff" stroke-width="2.2" stroke-linejoin="round"/>
    <path d="M 198 146 L 198 172 Q 250 186 302 172 L 302 146 Z" fill="#002046"/>
    <path d="M 198 172 Q 250 186 302 172" fill="none" stroke="#ffffff" stroke-width="1.6" opacity="0.5"/>
    <circle cx="250" cy="138" r="5.5" fill="#c6181b" stroke="#ffffff" stroke-width="0.8"/>
    <path d="M 250 138 C 214 140, 186 150, 174 164 C 166 174, 166 188, 166 206" fill="none" stroke="#c6181b" stroke-width="4.2" stroke-linecap="round"/>
    <polygon points="166,206 159,238 173,238" fill="#c6181b"/>
    <ellipse cx="166" cy="201" rx="4.8" ry="4.2" fill="#991214"/>
    <line x1="162" y1="238" x2="162" y2="246" stroke="#c6181b" stroke-width="2" stroke-linecap="round"/>
    <line x1="166" y1="238" x2="166" y2="247" stroke="#c6181b" stroke-width="2" stroke-linecap="round"/>
    <line x1="170" y1="238" x2="170" y2="246" stroke="#c6181b" stroke-width="2" stroke-linecap="round"/>

    <!-- 4. Two Red 5-Pointed Stars Flanking Globe -->
    <polygon points="115,211 119.8,225 134,225 122.5,233.5 126.8,247.5 115,239 103.2,247.5 107.5,233.5 96,225 110.2,225" fill="#c6181b"/>
    <polygon points="385,211 389.8,225 404,225 392.5,233.5 396.8,247.5 385,239 373.2,247.5 377.5,233.5 366,225 380.2,225" fill="#c6181b"/>

    <!-- 5. Ribbon Banner across Center-Bottom (Continuous Smooth Arch) -->
    <!-- Left Ribbon Fold & Tail -->
    <path d="M 132 284 L 66 296 L 84 318 L 66 340 L 138 318 Z" fill="#002046"/>
    <path d="M 132 284 L 138 318 L 148 308 Z" fill="#001026"/>
    <line x1="114" y1="294" x2="117" y2="324" stroke="#ffffff" stroke-width="3" stroke-linecap="round"/>
    <line x1="121" y1="292" x2="124" y2="321" stroke="#ffffff" stroke-width="3" stroke-linecap="round"/>
    <line x1="128" y1="290" x2="131" y2="318" stroke="#ffffff" stroke-width="3" stroke-linecap="round"/>

    <!-- Right Ribbon Fold & Tail -->
    <path d="M 368 284 L 434 296 L 416 318 L 434 340 L 362 318 Z" fill="#c6181b"/>
    <path d="M 368 284 L 362 318 L 352 308 Z" fill="#8f1113"/>
    <line x1="386" y1="294" x2="383" y2="324" stroke="#ffffff" stroke-width="3" stroke-linecap="round"/>
    <line x1="379" y1="292" x2="376" y2="321" stroke="#ffffff" stroke-width="3" stroke-linecap="round"/>
    <line x1="372" y1="290" x2="369" y2="318" stroke="#ffffff" stroke-width="3" stroke-linecap="round"/>

    <!-- Main White Banner Box with Thick Arched Navy Border -->
    <path d="M 124 256 Q 250 242 376 256 L 374 312 Q 250 298 126 312 Z" fill="#ffffff" stroke="#002046" stroke-width="5.5" stroke-linejoin="round"/>

    <!-- Banner Text: EUROWORLD -->
    <text x="250" y="293" font-family="'Outfit', 'Arial Black', 'Impact', 'Arial Bold', sans-serif" font-size="37" font-weight="900" fill="#002046" text-anchor="middle" letter-spacing="2.5px">
      EUROWORLD
    </text>

    <!-- 6. Curved Lower Text: CONSULTANTS (Conforms smoothly along circle border arc) -->
    <text font-family="'Outfit', 'Arial Black', 'Arial Bold', sans-serif" font-size="27" font-weight="900" fill="#c6181b" letter-spacing="4px">
      <textPath href="#consultantsArc" startOffset="50%" text-anchor="middle">CONSULTANTS</textPath>
    </text>
  </g>
</svg>
