<?xml version="1.0" encoding="UTF-8"?>
<svg xmlns="http://www.w3.org/2000/svg" viewBox="0 0 1360 320" width="100%" height="100%">
  <defs>
    <filter id="hShadow" x="-10%" y="-10%" width="120%" height="120%">
      <feDropShadow dx="0" dy="4" stdDeviation="6" flood-color="#001026" flood-opacity="0.18"/>
    </filter>
    <clipPath id="globeClipH">
      <circle cx="250" cy="200" r="95"/>
    </clipPath>
    <path id="consultantsArcH" d="M 134 416 A 202 202 0 0 0 366 416" fill="none"/>
  </defs>

  <!-- Left Side: Master Circular Seal Crest (Exact 280x280 centered vertically inside 320 height box) -->
  <g transform="translate(20, 20) scale(0.56)" filter="url(#hShadow)">
    <path d="M 250 10 A 240 240 0 0 0 250 490 L 250 468 A 218 218 0 0 1 250 32 Z" fill="#002046"/>
    <path d="M 250 10 A 240 240 0 0 1 250 490 L 250 468 A 218 218 0 0 0 250 32 Z" fill="#c6181b"/>
    <circle cx="250" cy="250" r="215" fill="#ffffff"/>
    <circle cx="250" cy="200" r="95" fill="#002046"/>
    <g clip-path="url(#globeClipH)">
      <path d="M 155 200 Q 250 182 345 200" fill="none" stroke="#ffffff" stroke-width="1.5" opacity="0.85"/>
      <path d="M 164 165 Q 250 150 336 165" fill="none" stroke="#ffffff" stroke-width="1.3" opacity="0.85"/>
      <path d="M 164 235 Q 250 220 336 235" fill="none" stroke="#ffffff" stroke-width="1.3" opacity="0.85"/>
      <line x1="250" y1="105" x2="250" y2="295" stroke="#ffffff" stroke-width="1.5" opacity="0.85"/>
      <path d="M 246 148 C 262 144, 280 150, 290 162 C 300 174, 295 186, 284 194 C 276 200, 278 212, 286 226 C 294 240, 292 262, 276 274 C 262 284, 248 270, 251 254 C 254 238, 246 222, 251 208 C 255 194, 240 186, 244 172 C 248 158, 240 152, 246 148 Z" fill="#ffffff" opacity="0.96"/>
      <path d="M 186 150 C 204 146, 216 160, 211 176 C 206 190, 194 198, 202 212 C 210 224, 220 242, 208 264 C 196 282, 178 274, 182 248 C 186 226, 175 212, 180 194 C 185 178, 172 162, 186 150 Z" fill="#ffffff" opacity="0.96"/>
    </g>
    <path d="M 250 114 C 282 122, 314 130, 344 138 C 314 146, 282 154, 250 162 C 218 154, 186 146, 156 138 C 186 130, 218 122, 250 114 Z" fill="#002046" stroke="#ffffff" stroke-width="2.2"/>
    <path d="M 198 146 L 198 172 Q 250 186 302 172 L 302 146 Z" fill="#002046"/>
    <circle cx="250" cy="138" r="5.5" fill="#c6181b"/>
    <path d="M 250 138 C 214 140, 186 150, 174 164 C 166 174, 166 188, 166 206" fill="none" stroke="#c6181b" stroke-width="4.2"/>
    <polygon points="166,206 159,238 173,238" fill="#c6181b"/>
    <polygon points="115,211 119.8,225 134,225 122.5,233.5 126.8,247.5 115,239 103.2,247.5 107.5,233.5 96,225 110.2,225" fill="#c6181b"/>
    <polygon points="385,211 389.8,225 404,225 392.5,233.5 396.8,247.5 385,239 373.2,247.5 377.5,233.5 366,225 380.2,225" fill="#c6181b"/>
    <path d="M 132 284 L 66 296 L 84 318 L 66 340 L 138 318 Z" fill="#002046"/>
    <path d="M 368 284 L 434 296 L 416 318 L 434 340 L 362 318 Z" fill="#c6181b"/>
    <path d="M 124 256 Q 250 242 376 256 L 374 312 Q 250 298 126 312 Z" fill="#ffffff" stroke="#002046" stroke-width="5.5"/>
    <text x="250" y="293" font-family="'Outfit', 'Arial Black', sans-serif" font-size="37" font-weight="900" fill="#002046" text-anchor="middle" letter-spacing="2.5px">EUROWORLD</text>
    <text font-family="'Outfit', 'Arial Black', sans-serif" font-size="27" font-weight="900" fill="#c6181b" letter-spacing="4px">
      <textPath href="#consultantsArcH" startOffset="50%" text-anchor="middle">CONSULTANTS</textPath>
    </text>
  </g>

  <!-- Right Side: Clean Modern Wordmark perfectly centered vertically inside 1360x320 box -->
  <g transform="translate(340, 0)">
    <text x="0" y="142" font-family="'Outfit', 'Arial Black', 'Arial Bold', sans-serif" font-size="106" font-weight="900" letter-spacing="2px">
      <tspan fill="#002046">EURO </tspan><tspan fill="#c6181b">WORLD</tspan>
    </text>
    <!-- Divider Bars centered at y=175 -->
    <line x1="2" y1="175" x2="242" y2="175" stroke="#c6181b" stroke-width="7" stroke-linecap="round"/>
    <line x1="242" y1="175" x2="980" y2="175" stroke="#e2e8f0" stroke-width="4" stroke-linecap="round"/>
    <!-- Subheadline centered with baseline y=242 -->
    <text x="2" y="242" font-family="'Outfit', 'Arial Bold', sans-serif" font-size="38" font-weight="800" fill="#002046" letter-spacing="6px">
      EDUCATION CONSULTANTS
    </text>
  </g>
</svg>
